# xmcd
#
# Track frame offsets: 
#        150
#        21770
#        33905
#        48847
#        63381
#        80838
#
# Disc length: 1331 seconds
#
# Revision: 0
# Processed by: cddbd v1.5.2PL0 Copyright (c) Steve Scherf et al.
# Submitted via: ExactAudioCopy v0.99pb4
#
DISCID=44053106
DTITLE=The Liberty Ship - Small Lives
DYEAR=2003
DGENRE=Indie
TTITLE0=Cabin Fever
TTITLE1=What Happens Now
TTITLE2=Headfull of Song
TTITLE3=If I Knew the Answers
TTITLE4=Once Blank Canvas
TTITLE5=Wayward Light
EXTD=
EXTT0=
EXTT1=
EXTT2=
EXTT3=
EXTT4=
EXTT5=
PLAYORDER=
